<?xml version="1.0" encoding="UTF-8" standalone="no"?>
<svg
   xmlns:dc="http://purl.org/dc/elements/1.1/"
   xmlns:cc="http://creativecommons.org/ns#"
   xmlns:rdf="http://www.w3.org/1999/02/22-rdf-syntax-ns#"
   xmlns:svg="http://www.w3.org/2000/svg"
   xmlns="http://www.w3.org/2000/svg"
   xmlns:sodipodi="http://sodipodi.sourceforge.net/DTD/sodipodi-0.dtd"
   xmlns:inkscape="http://www.inkscape.org/namespaces/inkscape"
   height="16"
   id="svg2103"
   inkscape:version="0.46"
   sodipodi:docbase="/datas/Projs/Cliparts Stocker/tmp/AIGA"
   sodipodi:docname="stop.svg"
   sodipodi:version="0.32"
   width="16"
   inkscape:output_extension="org.inkscape.output.svg.inkscape"
   version="1.0"
   inkscape:export-filename="/home/christoph/projekte/Naptan/naptanmerger/naptanmerger/public/image_selected.png"
   inkscape:export-xdpi="90"
   inkscape:export-ydpi="90">
  <metadata
     id="metadata2964">
    <rdf:RDF>
      <cc:Work
         rdf:about="">
        <dc:title>AIGA_Symbol_Signs</dc:title>
        <dc:description>EPS converted from  http://aiga.org</dc:description>
        <dc:subject>
          <rdf:Bag>
            <rdf:li>symbol</rdf:li>
            <rdf:li>mapsym</rdf:li>
          </rdf:Bag>
        </dc:subject>
        <dc:publisher>
          <cc:Agent
             rdf:about="http://www.openclipart.org/">
            <dc:title>Open Clip Art Library</dc:title>
          </cc:Agent>
        </dc:publisher>
        <dc:creator>
          <cc:Agent>
            <dc:title>Jean-Victor Balin</dc:title>
          </cc:Agent>
        </dc:creator>
        <dc:rights>
          <cc:Agent>
            <dc:title>Jean-Victor Balin</dc:title>
          </cc:Agent>
        </dc:rights>
        <dc:date />
        <dc:format>image/svg+xml</dc:format>
        <dc:type
           rdf:resource="http://purl.org/dc/dcmitype/StillImage" />
        <cc:license
           rdf:resource="http://web.resource.org/cc/PublicDomain" />
        <dc:language>en</dc:language>
      </cc:Work>
      <cc:License
         rdf:about="http://web.resource.org/cc/PublicDomain">
        <cc:permits
           rdf:resource="http://web.resource.org/cc/Reproduction" />
        <cc:permits
           rdf:resource="http://web.resource.org/cc/Distribution" />
        <cc:permits
           rdf:resource="http://web.resource.org/cc/DerivativeWorks" />
      </cc:License>
    </rdf:RDF>
  </metadata>
  <sodipodi:namedview
     bordercolor="#666666"
     borderopacity="1.0"
     id="base"
     inkscape:current-layer="svg2103"
     inkscape:cx="1.8431167"
     inkscape:cy="7.8896157"
     inkscape:pageopacity="0.0"
     inkscape:pageshadow="2"
     inkscape:window-height="1008"
     inkscape:window-width="1679"
     inkscape:window-x="1"
     inkscape:window-y="0"
     inkscape:zoom="36.0625"
     pagecolor="#ffffff"
     showgrid="false"
     showguides="true"
     inkscape:guide-bbox="true" />
  <defs
     id="defs2105">
    <inkscape:perspective
       sodipodi:type="inkscape:persp3d"
       inkscape:vp_x="0 : 217.53 : 1"
       inkscape:vp_y="0 : 1000 : 0"
       inkscape:vp_z="355.02399 : 217.53 : 1"
       inkscape:persp3d-origin="177.51199 : 145.02 : 1"
       id="perspective2984" />
    <marker
       id="ArrowEnd"
       markerHeight="3"
       markerUnits="strokeWidth"
       markerWidth="4"
       orient="auto"
       refX="0"
       refY="5"
       viewBox="0 0 10 10">
      <path
         d="M 0,0 L 10,5 L 0,10 L 0,0 z"
         id="path2108" />
    </marker>
    <marker
       id="ArrowStart"
       markerHeight="3"
       markerUnits="strokeWidth"
       markerWidth="4"
       orient="auto"
       refX="10"
       refY="5"
       viewBox="0 0 10 10">
      <path
         d="M 10,0 L 0,5 L 10,10 L 10,0 z"
         id="path2111" />
    </marker>
    <marker
       viewBox="0 0 10 10"
       refY="5"
       refX="10"
       orient="auto"
       markerWidth="4"
       markerUnits="strokeWidth"
       markerHeight="3"
       id="marker3895">
      <path
         id="path3897"
         d="M 10,0 L 0,5 L 10,10 L 10,0 z" />
    </marker>
    <marker
       viewBox="0 0 10 10"
       refY="5"
       refX="0"
       orient="auto"
       markerWidth="4"
       markerUnits="strokeWidth"
       markerHeight="3"
       id="marker3891">
      <path
         id="path3893"
         d="M 0,0 L 10,5 L 0,10 L 0,0 z" />
    </marker>
    <inkscape:perspective
       id="perspective3888"
       inkscape:persp3d-origin="177.51199 : 145.02 : 1"
       inkscape:vp_z="355.02399 : 217.53 : 1"
       inkscape:vp_y="0 : 1000 : 0"
       inkscape:vp_x="0 : 217.53 : 1"
       sodipodi:type="inkscape:persp3d" />
  </defs>
  <rect
     style="opacity:1;color:#000000;fill:#fce94f;fill-opacity:1;fill-rule:evenodd;stroke:#cc0000;stroke-width:0.99999987999999995;stroke-linecap:round;stroke-linejoin:round;marker:none;marker-start:none;marker-mid:none;marker-end:none;stroke-miterlimit:4;stroke-dasharray:none;stroke-dashoffset:0;stroke-opacity:1;visibility:visible;display:inline;overflow:visible;enable-background:accumulate"
     id="rect3802"
     width="9"
     height="9"
     x="-12.5"
     y="-12.5"
     transform="scale(-1,-1)"
     ry="2"
     rx="2"
     inkscape:export-filename="/home/christoph/projekte/Naptan/naptanmerger/naptanmerger/public/plain_osm_stop_marked_highlighted.png"
     inkscape:export-xdpi="198"
     inkscape:export-ydpi="198" />
  <path
     d=""
     id="path2125"
     style="fill:#ffffff;stroke:none" />
  <path
     d=""
     id="path2131"
     style="fill:#ffffff;stroke:none" />
  <g
     id="g4485"
     inkscape:export-filename="/home/christoph/projekte/Naptan/naptanmerger/naptanmerger/public/plain_osm_stop_marked_highlighted.png"
     inkscape:export-xdpi="198"
     inkscape:export-ydpi="198"
     style="opacity:1"
     transform="translate(0,6.868124e-3)">
    <path
       id="path3900"
       d="M 7.96875,5 C 7.4204734,5.0102251 6.6807897,5.1538376 6.375,5.28125 C 6.058409,5.4131629 5.8471996,5.5452245 5.78125,5.875 L 5.5625,7.71875 L 5.5625,10.25 L 5.96875,10.25 L 5.96875,10.625 C 5.9687501,11.106685 6.65625,11.106685 6.65625,10.625 L 6.65625,10.25 L 7.96875,10.25 L 9.34375,10.25 L 9.34375,10.625 C 9.3437501,11.106685 10.03125,11.106685 10.03125,10.625 L 10.03125,10.25 L 10.4375,10.25 L 10.4375,7.71875 L 10.21875,5.875 C 10.1528,5.5452247 9.9415909,5.4131629 9.625,5.28125 C 9.3192107,5.1538376 8.579527,5.0102252 8.03125,5 L 8,5 L 7.96875,5 z M 6.46875,6.0625 L 7.96875,6.0625 L 9.53125,6.0625 C 9.7402738,6.0625 9.7871225,6.182647 9.8125,6.34375 L 10,7.65625 C 10.017231,7.7833461 9.9880951,7.9062498 9.8125,7.90625 L 7.96875,7.90625 L 6.1875,7.90625 C 6.011905,7.90625 5.9827693,7.7833459 6,7.65625 L 6.1875,6.34375 C 6.212878,6.1826469 6.2597261,6.0625001 6.46875,6.0625 z"
       style="fill:#cc0000;stroke:none" />
    <g
       style="fill:#eeeeec"
       transform="matrix(1.3762436e-2,0,0,1.3762436e-2,5.5570025,5.0062574)"
       id="g2119">
      <g
         style="fill:#eeeeec"
         id="g2121">
        <path
           d="M 299.682,322.723 C 313.25,322.723 324.25,311.721 324.25,298.153 C 324.25,284.585 313.25,273.583 299.682,273.583 C 286.114,273.583 275.113,284.585 275.113,298.153 C 275.113,311.721 286.114,322.723 299.682,322.723 z"
           id="path2123"
           style="fill:#eeeeec;stroke:none" />
        <path
           id="path3906"
           style="fill:#eeeeec;stroke:none"
           d="" />
      </g>
      <g
         style="fill:#eeeeec"
         id="g2127">
        <path
           d="M 55.342,322.723 C 41.774,322.723 30.774,311.721 30.774,298.153 C 30.774,284.585 41.774,273.583 55.342,273.583 C 68.91,273.583 79.911,284.585 79.911,298.153 C 79.911,311.721 68.91,322.723 55.342,322.723 z"
           id="path2129"
           style="fill:#eeeeec;stroke:none" />
        <path
           id="path3910"
           style="fill:#eeeeec;stroke:none"
           d="" />
      </g>
    </g>
    <path
       d="M 7.9738514,5.7647465 L 6.9948468,5.7647465 C 6.7969705,5.7647465 6.7969705,5.4679458 6.9948468,5.4679458 L 7.9762598,5.4679458 L 9.0051533,5.4679458 C 9.2030297,5.4679458 9.2030297,5.7647465 9.0051533,5.7647465 L 7.9738514,5.7647465 z"
       id="path2133"
       style="fill:#eeeeec;stroke:none" />
  </g>
</svg>
